M48
;DRILL file {KiCad 4.0.6} date 05/18/17 17:03:26
;FORMAT={-:-/ absolute / inch / decimal}
FMAT,2
INCH,TZ
T1C0.016
T2C0.024
T3C0.031
T4C0.039
T5C0.060
T6C0.063
T7C0.126
%
G90
G05
M72
T1
X1.75Y-1.375
X2.Y-1.6
X2.4Y-2.33
X2.48Y-2.38
X2.55Y-1.625
X2.65Y-1.25
X2.8Y-1.825
X2.81Y-2.27
X2.83Y-2.47
X2.9Y-2.07
X3.075Y-1.075
X3.13Y-2.68
X3.25Y-3.275
X3.3Y-1.125
X3.31Y-2.5
X3.325Y-1.275
X3.355Y-2.64
X3.355Y-2.68
X3.51Y-2.45
X3.55Y-3.275
X3.675Y-1.95
X3.74Y-2.53
X3.75Y-2.39
X3.76Y-2.33
X3.76Y-2.79
X3.775Y-1.775
X3.82Y-2.33
X3.83Y-1.71
X3.85Y-3.275
X3.88Y-3.12
X3.9Y-1.94
X3.9Y-2.08
X3.915Y-2.22
X3.94Y-1.94
X3.94Y-2.08
X3.945Y-2.545
X3.95Y-2.68
X3.96Y-1.77
X3.97Y-2.92
X3.995Y-2.275
X4.07Y-2.39
X4.08Y-2.86
X4.14Y-3.98
X4.15Y-3.275
X4.18Y-2.46
X4.2Y-3.8
X4.26Y-3.59
X4.28Y-2.34
X4.5Y-1.7
X4.54Y-2.57
X4.575Y-3.65
X4.66Y-2.52
X4.85Y-2.15
X4.91Y-3.35
T2
X2.55Y-3.25
X2.55Y-3.35
X2.57Y-1.95
X2.57Y-2.05
X2.6Y-3.3
X2.62Y-2.
T3
X3.17Y-2.265
X3.17Y-2.4571
T4
X4.26Y-2.48
X4.26Y-2.58
X4.26Y-2.68
X4.26Y-2.78
X4.26Y-2.88
X4.26Y-2.98
T5
X1.54Y-1.18
X1.54Y-1.38
X1.54Y-1.68
X1.54Y-1.88
X3.2Y-3.98
X3.4Y-3.98
X3.6Y-3.98
X3.8Y-3.98
X4.Y-3.98
X4.58Y-3.98
X4.74Y-2.76
X4.74Y-2.96
X4.74Y-3.16
X4.78Y-3.98
T6
X1.83Y-2.79
X1.83Y-3.43
X1.83Y-4.05
X1.85Y-2.13
X2.33Y-2.79
X2.33Y-3.43
X2.33Y-4.05
X2.35Y-2.13
T7
X1.6Y-0.8
X1.6Y-4.5
X4.8Y-0.8
X4.8Y-4.5
T0
M30
